{
    "asset": {
        "version": "2.0",
        "generator": "Open Asset Import Library (assimp v5.0.5eb040c7)"
    },
    "accessors": [
        {
            "bufferView": 0,
            "byteOffset": 0,
            "componentType": 5126,
            "count": 499996,
            "type": "VEC3",
            "max": [
                0.481201171875,
                0.385650634765625,
                0.5
            ],
            "min": [
                -0.481231689453125,
                -0.385650634765625,
                -0.5
            ]
        },
        {
            "bufferView": 1,
            "byteOffset": 0,
            "componentType": 5125,
            "count": 3000186,
            "type": "SCALAR",
            "max": [
                499995
            ],
            "min": [
                0
            ]
        }
    ],
    "buffers": [
        {
            "byteLength": 18000696,
            "uri": "result.bin"
        }
    ],
    "bufferViews": [
        {
            "buffer": 0,
            "byteOffset": 0,
            "byteLength": 5999952,
            "target": 34962
        },
        {
            "buffer": 0,
            "byteOffset": 5999952,
            "byteLength": 12000744,
            "target": 34963
        }
    ],
    "images": [
        {
            "uri": "tripo_convert_5558f86e-213e-400a-8443-966d5b51896b.fbm/tripo_image_5558f86e_0.jpg"
        },
        {
            "uri": "tripo_convert_5558f86e-213e-400a-8443-966d5b51896b.fbm/tripo_image_5558f86e_2.jpg"
        }
    ],
    "materials": [
        {
            "name": "tripo_mat_5558f86e",
            "pbrMetallicRoughness": {
                "baseColorTexture": {
                    "index": 0
                },
                "baseColorFactor": [
                    0.800000011920929,
                    0.800000011920929,
                    0.800000011920929,
                    1.0
                ],
                "metallicFactor": 0.0,
                "roughnessFactor": 0.873508870601654
            },
            "normalTexture": {
                "index": 1
            }
        }
    ],
    "meshes": [
        {
            "name": "tripo_mesh_5558f86e",
            "primitives": [
                {
                    "mode": 4,
                    "material": 0,
                    "indices": 1,
                    "attributes": {
                        "POSITION": 0
                    }
                }
            ]
        }
    ],
    "nodes": [
        {
            "name": "RootNode",
            "children": [
                1
            ]
        },
        {
            "name": "tripo_node_5558f86e",
            "matrix": [
                1.0,
                0.0,
                0.0,
                0.0,
                0.0,
                -4.371138828673793e-8,
                -1.0,
                0.0,
                0.0,
                1.0,
                -4.371138828673793e-8,
                0.0,
                0.0,
                0.0,
                0.0,
                1.0
            ],
            "mesh": 0
        }
    ],
    "samplers": [
        {},
        {}
    ],
    "scenes": [
        {
            "nodes": [
                0
            ]
        }
    ],
    "textures": [
        {
            "source": 0,
            "sampler": 0
        },
        {
            "source": 1,
            "sampler": 1
        }
    ],
    "scene": 0
}